<svg xmlns="http://www.w3.org/2000/svg" version="1.1" xmlns:xlink="http://www.w3.org/1999/xlink" xmlns:svgjs="http://svgjs.dev/svgjs" width="1500" height="1500" viewBox="0 0 1500 1500"><rect width="1500" height="1500" fill="#000000"></rect><g transform="matrix(0.6666666666666666,0,0,0.6666666666666666,249.39393939393938,435.99032258064517)"><svg viewBox="0 0 396 248" data-background-color="#ffffff" preserveAspectRatio="xMidYMid meet" height="939" width="1500" xmlns="http://www.w3.org/2000/svg" xmlns:xlink="http://www.w3.org/1999/xlink"><g id="tight-bounds" transform="matrix(1,0,0,1,0.2400000000000091,0.4000000000000057)"><svg viewBox="0 0 395.52 247.2" height="247.2" width="395.52"><g><svg></svg></g><g><svg viewBox="0 0 395.52 247.2" height="247.2" width="395.52"><g transform="matrix(1,0,0,1,75.54432,97.87734966064981)"><svg viewBox="0 0 244.43135999999998 51.445300678700356" height="51.445300678700356" width="244.43135999999998"><g><svg viewBox="0 0 244.43136 51.44530067870036" height="51.445300678700356" width="244.43135999999998"><g><svg viewBox="0 0 244.43136 51.44530067870036" height="51.44530067870036" width="244.43136"><g id="textblocktransform"><svg viewBox="0 0 244.43136 51.44530067870036" height="51.44530067870036" width="244.43136" id="textblock"><g><svg viewBox="0 0 244.43136 51.44530067870036" height="51.44530067870036" width="244.43136"><g transform="matrix(1,0,0,1,0,0)"><svg width="244.43136" viewBox="4.83 -34.03 202.86999999999998 42.7" height="51.44530067870036" data-palette-color="#111111"><path d="M7.08-34.03Q7.64-34.03 8.07-33.79 8.5-33.54 8.67-33.15L8.67-33.15 25.07 6.96Q25.15 7.18 25.15 7.37L25.15 7.37Q25.15 7.93 24.51 8.3 23.88 8.67 22.9 8.67L22.9 8.67Q22.34 8.67 21.91 8.42 21.48 8.18 21.31 7.79L21.31 7.79 4.91-32.32Q4.83-32.54 4.83-32.74L4.83-32.74Q4.83-33.3 5.47-33.67 6.1-34.03 7.08-34.03L7.08-34.03ZM44.97-29.52Q48.09-29.52 50.45-27.65 52.81-25.78 54.09-22.38 55.37-18.97 55.37-14.48L55.37-14.48Q55.37-9.99 54.09-6.59 52.81-3.2 50.46-1.33 48.12 0.54 44.97 0.54L44.97 0.54Q41.82 0.54 39.48-1.33 37.13-3.2 35.85-6.59 34.57-9.99 34.57-14.48L34.57-14.48Q34.57-18.97 35.85-22.38 37.13-25.78 39.49-27.65 41.84-29.52 44.97-29.52L44.97-29.52ZM44.97-25.9Q43.04-25.9 41.56-24.55 40.09-23.19 39.26-20.62 38.43-18.04 38.43-14.48L38.43-14.48Q38.43-10.91 39.26-8.34 40.09-5.76 41.56-4.42 43.04-3.08 44.97-3.08L44.97-3.08Q46.9-3.08 48.37-4.42 49.85-5.76 50.68-8.34 51.51-10.91 51.51-14.48L51.51-14.48Q51.51-18.04 50.68-20.62 49.85-23.19 48.37-24.55 46.9-25.9 44.97-25.9L44.97-25.9ZM82.98-29.52Q83.98-29.52 84.39-29.15 84.81-28.78 84.81-27.93L84.81-27.93 84.81-22.31Q84.81-21.46 84.39-21.09 83.98-20.73 82.98-20.73L82.98-20.73Q82.05-20.73 81.71-21.36L81.71-21.36Q80.54-23.58 78.41-24.74 76.29-25.9 73.58-25.9L73.58-25.9Q70.89-25.9 69.42-24.66 67.94-23.41 67.94-21.31L67.94-21.31Q67.94-20.31 68.45-19.63 68.96-18.95 69.92-18.46L69.92-18.46Q70.77-18.02 71.92-17.74 73.07-17.46 75-17.09L75-17.09Q77.09-16.67 78.33-16.39 79.56-16.11 80.76-15.63L80.76-15.63Q83.2-14.62 84.58-12.83 85.96-11.04 85.96-7.98L85.96-7.98Q85.96-5.44 84.76-3.53 83.56-1.61 81.23-0.54 78.9 0.54 75.63 0.54L75.63 0.54Q73.19 0.54 71.1-0.35 69.01-1.25 67.48-2.95L67.48-2.95 67.48-1.05Q67.48-0.2 67.06 0.17 66.65 0.54 65.64 0.54L65.64 0.54Q64.64 0.54 64.23 0.17 63.81-0.2 63.81-1.05L63.81-1.05 63.81-8.37Q63.81-9.23 64.23-9.59 64.64-9.96 65.64-9.96L65.64-9.96Q66.69-9.96 67.06-8.94L67.06-8.94Q68.06-6.1 70.25-4.59 72.43-3.08 75.63-3.08L75.63-3.08Q78.75-3.08 80.43-4.42 82.1-5.76 82.1-7.98L82.1-7.98Q82.1-9.52 81.33-10.49 80.56-11.45 79.1-12.08L79.1-12.08Q78.17-12.5 77.07-12.76 75.97-13.01 74.07-13.4L74.07-13.4Q72.07-13.79 70.71-14.14 69.36-14.48 68.21-14.99L68.21-14.99Q66.25-15.87 65.17-17.37 64.08-18.87 64.08-21.31L64.08-21.31Q64.08-23.83 65.29-25.68 66.5-27.54 68.66-28.53 70.82-29.52 73.58-29.52L73.58-29.52Q75.73-29.52 77.73-28.69 79.73-27.86 81.15-26.44L81.15-26.44 81.15-27.93Q81.15-28.78 81.56-29.15 81.98-29.52 82.98-29.52L82.98-29.52ZM104.92-29.52Q108.73-29.52 111.65-27.75 114.57-25.98 116.17-22.71 117.77-19.43 117.77-15.09L117.77-15.09Q117.77-10.74 116.17-7.48 114.57-4.22 111.65-2.45 108.73-0.68 104.92-0.68L104.92-0.68Q104.24-0.68 103.65-0.73L103.65-0.73 100.51 2.56Q102.48 1.78 104.41 1.78L104.41 1.78Q105.19 1.78 105.89 1.88 106.58 1.98 107.63 2.2L107.63 2.2Q109.32 2.56 110.27 2.56L110.27 2.56Q111.25 2.56 112.19 2.25 113.13 1.93 114.18 1.17L114.18 1.17Q114.4 1.03 114.64 1.03L114.64 1.03Q115.01 1.03 115.39 1.32 115.76 1.61 116.06 2.1L116.06 2.1Q116.47 2.81 116.47 3.34L116.47 3.34Q116.47 3.98 115.93 4.37L115.93 4.37Q114.52 5.42 113.26 5.86 112 6.3 110.76 6.3L110.76 6.3Q110.12 6.3 109.4 6.2 108.68 6.1 108.23 6.02 107.78 5.93 107.59 5.88L107.59 5.88Q106.32 5.62 105.47 5.49 104.63 5.37 103.65 5.37L103.65 5.37Q101.02 5.37 98.16 6.57L98.16 6.57Q97.99 6.64 97.8 6.64L97.8 6.64Q96.99 6.64 96.14 5.52L96.14 5.52Q95.5 4.69 95.5 4.08L95.5 4.08Q95.5 3.74 95.72 3.47L95.72 3.47 100.11-1.51Q96.35-2.93 94.22-6.48 92.08-10.03 92.08-15.09L92.08-15.09Q92.08-19.43 93.68-22.71 95.28-25.98 98.2-27.75 101.12-29.52 104.92-29.52L104.92-29.52ZM104.92-25.9Q102.21-25.9 100.19-24.61 98.16-23.32 97.05-20.87 95.94-18.43 95.94-15.09L95.94-15.09Q95.94-11.74 97.05-9.3 98.16-6.86 100.19-5.58 102.21-4.3 104.92-4.3L104.92-4.3Q107.63-4.3 109.66-5.58 111.69-6.86 112.8-9.3 113.91-11.74 113.91-15.09L113.91-15.09Q113.91-18.43 112.8-20.87 111.69-23.32 109.66-24.61 107.63-25.9 104.92-25.9L104.92-25.9ZM146.65-28.98Q147.48-28.98 147.83-28.6 148.18-28.22 148.18-27.32L148.18-27.32Q148.18-26.42 147.83-26.04 147.48-25.66 146.65-25.66L146.65-25.66 145.13-25.66 145.13-9.59Q145.13-4.49 142.46-1.98 139.78 0.54 134.9 0.54L134.9 0.54Q130.02 0.54 127.35-1.98 124.67-4.49 124.67-9.59L124.67-9.59 124.67-25.66 123.16-25.66Q122.33-25.66 121.97-26.04 121.62-26.42 121.62-27.32L121.62-27.32Q121.62-28.22 121.97-28.6 122.33-28.98 123.16-28.98L123.16-28.98 131.07-28.98Q131.9-28.98 132.25-28.6 132.61-28.22 132.61-27.32L132.61-27.32Q132.61-26.42 132.25-26.04 131.9-25.66 131.07-25.66L131.07-25.66 128.33-25.66 128.33-10.08Q128.33-6.35 129.92-4.71 131.51-3.08 134.9-3.08L134.9-3.08Q138.3-3.08 139.88-4.71 141.47-6.35 141.47-10.08L141.47-10.08 141.47-25.66 138.74-25.66Q137.91-25.66 137.55-26.04 137.2-26.42 137.2-27.32L137.2-27.32Q137.2-28.22 137.55-28.6 137.91-28.98 138.74-28.98L138.74-28.98 146.65-28.98ZM165.51-28.98Q166.49-28.98 167.09-28.6 167.69-28.22 167.98-27.39L167.98-27.39 176.6-3.32 178.09-3.32Q178.92-3.32 179.27-2.94 179.63-2.56 179.63-1.66L179.63-1.66Q179.63-0.76 179.27-0.38 178.92 0 178.09 0L178.09 0 169.45 0Q168.62 0 168.26-0.38 167.91-0.76 167.91-1.66L167.91-1.66Q167.91-2.56 168.26-2.94 168.62-3.32 169.45-3.32L169.45-3.32 172.74-3.32 170.74-9.13 158.9-9.13 156.87-3.32 159.83-3.32Q160.66-3.32 161.01-2.94 161.36-2.56 161.36-1.66L161.36-1.66Q161.36-0.76 161.01-0.38 160.66 0 159.83 0L159.83 0 151.67 0Q150.84 0 150.49-0.38 150.13-0.76 150.13-1.66L150.13-1.66Q150.13-2.56 150.49-2.94 150.84-3.32 151.67-3.32L151.67-3.32 153.04-3.32 161.12-25.66 156.55-25.66Q155.72-25.66 155.37-26.04 155.02-26.42 155.02-27.32L155.02-27.32Q155.02-28.22 155.37-28.6 155.72-28.98 156.55-28.98L156.55-28.98 165.51-28.98ZM165.08-25.66L164.61-25.66 160.05-12.45 169.62-12.45 165.08-25.66ZM194.86-28.98Q198.69-28.98 201.6-27.23 204.5-25.49 206.1-22.2 207.7-18.92 207.7-14.48L207.7-14.48Q207.7-10.03 206.1-6.76 204.5-3.49 201.6-1.75 198.69 0 194.86 0L194.86 0 183.36 0Q182.53 0 182.17-0.38 181.82-0.76 181.82-1.66L181.82-1.66Q181.82-2.56 182.17-2.94 182.53-3.32 183.36-3.32L183.36-3.32 186.09-3.32 186.09-25.66 183.36-25.66Q182.53-25.66 182.17-26.04 181.82-26.42 181.82-27.32L181.82-27.32Q181.82-28.22 182.17-28.6 182.53-28.98 183.36-28.98L183.36-28.98 194.86-28.98ZM189.76-25.66L189.76-3.32 194.3-3.32Q197.2-3.32 199.35-4.6 201.5-5.88 202.67-8.39 203.84-10.89 203.84-14.48L203.84-14.48Q203.84-18.07 202.67-20.57 201.5-23.07 199.35-24.37 197.2-25.66 194.3-25.66L194.3-25.66 189.76-25.66Z" opacity="1" transform="matrix(1,0,0,1,0,0)" fill="#ffffff" class="wordmark-text-0" data-fill-palette-color="primary" id="text-0"></path></svg></g></svg></g></svg></g></svg></g></svg></g></svg></g><path d="M192.252 91.877L192.252 31.612 8.275 31.612 8.275 215.588 192.252 215.588 192.252 155.323 187.612 155.323 187.612 210.949 12.915 210.949 12.915 36.251 187.612 36.251 187.612 91.877Z" fill="#ffffff" stroke="transparent" data-fill-palette-color="tertiary"></path></svg></g><defs></defs></svg><rect width="395.52" height="247.2" fill="none" stroke="none" visibility="hidden"></rect></g></svg></g></svg>