<svg xmlns="http://www.w3.org/2000/svg" version="1.1" xmlns:xlink="http://www.w3.org/1999/xlink" xmlns:svgjs="http://svgjs.dev/svgjs" width="1500" height="1500" viewBox="0 0 1500 1500"><rect width="1500" height="1500" fill="#ffffff"></rect><g transform="matrix(0.6666666666666666,0,0,0.6666666666666666,249.39393939393938,435.99032258064517)"><svg viewBox="0 0 396 248" data-background-color="#004051" preserveAspectRatio="xMidYMid meet" height="939" width="1500" xmlns="http://www.w3.org/2000/svg" xmlns:xlink="http://www.w3.org/1999/xlink"><g id="tight-bounds" transform="matrix(1,0,0,1,0.2400000000000091,0.4000000000000057)"><svg viewBox="0 0 395.52 247.2" height="247.2" width="395.52"><g><svg></svg></g><g><svg viewBox="0 0 395.52 247.2" height="247.2" width="395.52"><g transform="matrix(1,0,0,1,84.89290746268657,47.215199999999996)"><svg viewBox="0 0 225.73418507462685 152.7696" height="152.7696" width="225.73418507462685"><g><svg viewBox="0 0 225.73418507462685 152.7696" height="152.7696" width="225.73418507462685"><g><svg viewBox="0 0 225.73418507462685 152.7696" height="152.7696" width="225.73418507462685"><g><svg viewBox="0 0 225.73418507462685 152.7696" height="152.7696" width="225.73418507462685"><g id="textblocktransform"><svg viewBox="0 0 225.73418507462685 152.7696" height="152.7696" width="225.73418507462685" id="textblock"><g><svg viewBox="0 0 225.73418507462685 152.7696" height="152.7696" width="225.73418507462685"><g transform="matrix(1,0,0,1,0,0)"><svg width="225.73418507462685" viewBox="1.39 -35.5 53.17 35.99" height="152.7696" data-palette-color="#32fd6b"><path d="M8.59-35.01L23.1 0 15.89 0 1.39-35.01 8.59-35.01ZM47.9-17.5L47.9-17.5Q47.9-23.34 45.96-26.17 44.02-29 40.55-29L40.55-29Q37.11-29 35.2-26.2 33.3-23.39 33.3-17.5L33.3-17.5Q33.3-11.67 35.2-8.84 37.11-6.01 40.55-6.01L40.55-6.01Q42.28-6.01 43.65-6.7 45.02-7.4 45.96-8.81 46.9-10.23 47.4-12.39 47.9-14.55 47.9-17.5ZM54.56-17.5L54.56-17.5Q54.56-12.52 53.46-9.08 52.37-5.64 50.46-3.52 48.56-1.39 46.01-0.45 43.45 0.49 40.55 0.49L40.55 0.49Q37.64 0.49 35.09-0.48 32.54-1.44 30.65-3.58 28.76-5.71 27.66-9.14 26.56-12.57 26.56-17.5L26.56-17.5Q26.56-22.49 27.66-25.92 28.76-29.35 30.65-31.47 32.54-33.59 35.09-34.55 37.64-35.5 40.55-35.5L40.55-35.5Q43.45-35.5 46.01-34.53 48.56-33.57 50.46-31.42 52.37-29.27 53.46-25.85 54.56-22.44 54.56-17.5Z" opacity="1" transform="matrix(1,0,0,1,0,0)" fill="#000000" class="wordmark-text-0" data-fill-palette-color="primary" id="text-0"></path></svg></g></svg></g></svg></g></svg></g></svg></g></svg></g></svg></g><path d="M267.194 41.215L267.194 0 19.994 0 19.994 247.2 267.194 247.2 267.194 205.985 253.417 205.985 253.417 233.423 33.771 233.423 33.771 13.777 253.417 13.777 253.417 41.215Z" fill="#000000" stroke="transparent" data-fill-palette-color="tertiary"></path></svg></g><defs></defs></svg><rect width="395.52" height="247.2" fill="none" stroke="none" visibility="hidden"></rect></g></svg></g></svg>